<svg viewBox="0 0 200 200" xmlns="http://www.w3.org/2000/svg">
  <path fill="#6366f1" d="M35,-52.1C44.7,-48,51.6,-36.8,55,-24.8C58.3,-12.9,58.2,-0.2,55.1,11.6C52.1,23.4,46.1,34.4,36.9,42.5C27.7,50.6,15.3,55.8,1.6,53.6C-12.1,51.4,-27.1,41.8,-38.3,29.9C-49.4,18,-56.7,3.9,-56,-9.6C-55.2,-23.1,-46.3,-36,-34.7,-43.3C-23.1,-50.7,-8.8,-52.4,3.3,-57C15.4,-61.6,30.8,-69.1,35,-52.1Z" transform="translate(100 100)" opacity="0.15" />
  <rect x="50" y="50" width="100" height="100" rx="20" fill="#6366f1" />
  <rect x="75" y="38" width="12" height="24" rx="6" fill="#ffffff" opacity="0.9" />
  <rect x="113" y="38" width="12" height="24" rx="6" fill="#ffffff" opacity="0.9" />
  <rect x="65" y="85" width="70" height="50" rx="8" fill="#ffffff" />
  <path d="M92,112 L98,118 L108,105" stroke="#6366f1" stroke-width="6" stroke-linecap="round" stroke-linejoin="round" fill="none" />
</svg>
